<svg width="223" height="16" viewBox="0 0 223 16" fill="none" xmlns="http://www.w3.org/2000/svg">
<path fill-rule="evenodd" clip-rule="evenodd" d="M38.1314 6.18234C38.1314 6.78512 38.2379 7.01604 37.7331 7.41801C37.6406 7.4916 37.5337 7.57134 37.4138 7.67056L35.7822 8.98455C35.4135 9.24855 34.5587 9.05684 34.5893 8.30865V4.55887C34.5942 4.06701 34.5419 3.91818 34.9801 3.56051L36.7744 2.0965C37.4347 1.59189 38.1457 1.9974 38.1433 2.70389L38.1314 6.18222V6.18234ZM34.2397 0.945996L34.2453 2.68487C34.2707 3.47286 33.9618 3.59854 33.592 3.74879L29.8342 5.42565C28.7717 5.89967 27.9469 6.78571 27.6419 7.92535C27.4062 8.8063 27.5611 9.76462 27.9839 10.5621C28.2419 11.0493 28.6068 11.4207 29.047 11.7465C29.4792 12.0662 29.9842 12.2934 30.5324 12.3979C30.9819 12.4837 31.4919 12.5196 31.9866 12.3908C32.5156 12.2531 33.0222 12.0153 33.4175 11.7202L40.4415 6.08631C41.0393 5.50999 41.8918 5.98968 41.8277 6.73102L41.817 7.80203C41.8493 8.08824 42.141 8.14328 42.3188 8.00071L49.8134 1.98854C49.8857 1.93042 49.9696 1.8983 50.0459 1.87207C50.4854 1.72088 51.1076 1.97626 51.1059 2.65262L51.1006 4.76736C51.0972 5.55051 51.1382 5.55429 50.5135 6.06623L41.616 13.1929C41.4805 13.3299 41.3312 13.421 41.208 13.5196C40.6399 13.9746 39.789 13.6719 39.9024 12.6105V11.638C39.9024 11.3835 39.6139 11.2551 39.4199 11.412L35.4983 14.5851C34.3996 15.4009 33.0739 15.8869 31.7259 15.9816C30.3744 16.0767 28.9969 15.8034 27.7997 15.1515C27.2722 14.8642 26.7854 14.5135 26.3499 14.11L26.3505 14.1093C25.9124 13.7032 25.5258 13.2445 25.2013 12.7439C24.8922 12.2668 24.6377 11.7493 24.4472 11.2007C24.2622 10.6683 24.0876 10.1071 24.0331 9.52566C24.0222 9.41144 24.0141 9.30596 24.0089 9.19917C24.003 9.07715 24 8.96305 24 8.84705C24 8.7222 24.0048 8.57502 24.0142 8.41744C24.0228 8.27062 24.0352 8.12497 24.051 7.99244C24.3193 5.73265 25.7667 3.57255 27.9505 2.39996L32.8608 0.178794C33.7556 -0.307277 34.2946 0.281206 34.2399 0.945524L34.2401 0.94576L34.2397 0.945996Z" fill="#032900"/>
<path d="M52.4922 8.19611C52.4922 12.0518 56.0758 15.1778 59.8419 15.1778C62.7793 15.1778 64.281 13.9873 64.281 13.9873L62.7643 10.9241C62.7643 10.9241 61.8161 11.66 60.3982 11.66C57.4607 11.66 56.369 9.61688 56.369 8.19599C56.369 6.7751 57.4607 4.73207 60.3982 4.73207C61.816 4.73207 62.7643 5.4649 62.7643 5.4649L64.281 2.40483C64.281 2.40483 62.7793 1.21428 59.8419 1.21428C56.0758 1.21428 52.4922 4.34014 52.4922 8.19599V8.19611ZM64.5501 10.7538C64.5501 13.3502 66.7667 15.1778 69.6383 15.1778C72.51 15.1778 74.7265 13.3502 74.7265 10.7538C74.7265 8.15725 72.51 6.32967 69.6383 6.32967C66.7666 6.32967 64.5501 8.15737 64.5501 10.7538ZM68.1038 10.7538C68.1038 9.83245 68.8038 9.20133 69.6384 9.20133C70.4731 9.20133 71.173 9.83245 71.173 10.7538C71.173 11.675 70.4731 12.3062 69.6384 12.3062C68.8039 12.3062 68.1038 11.675 68.1038 10.7538ZM75.7287 0.891451V14.9267H79.1208V0.891451H75.7287ZM80.7212 0.891451V14.9267H84.1133V0.891451H80.7212ZM85.1393 10.7388C85.1393 13.1229 87.2213 15.1778 89.7668 15.1778C91.6664 15.1778 93.2308 14.6066 94.2089 12.9613L91.78 11.7617C91.0771 12.4229 90.8317 12.5035 90.0122 12.5035C89.6054 12.5035 88.6391 12.2942 88.6391 11.2292H94.3076C94.3255 11.0319 94.3405 10.8374 94.3405 10.658C94.3405 7.82509 92.3991 6.32955 89.7997 6.32955C87.2392 6.32955 85.1392 8.29486 85.1392 10.7387L85.1393 10.7388ZM88.7348 9.47053C88.7528 8.96496 89.0967 8.57315 89.8984 8.57315C90.5206 8.57315 90.9155 8.81838 91.0291 9.47053H88.7348ZM94.7981 10.7538C94.7981 13.1677 97.0506 15.1749 99.4647 15.1749C101.307 15.1749 102.253 14.424 102.253 14.424L101.143 12.1416C100.835 12.336 100.542 12.4168 99.9702 12.4168C99.1207 12.4168 98.3879 11.6421 98.3879 10.7537C98.3879 9.86529 99.1207 9.09041 99.9702 9.09041C100.542 9.09041 100.835 9.17121 101.143 9.36563L102.253 7.08328C102.253 7.08328 101.307 6.33238 99.4647 6.33238C97.0506 6.33238 94.7981 8.33963 94.7981 10.7537V10.7538ZM102.229 6.58386V9.16235H103.533V11.7557C103.533 13.3351 104.152 15.1778 106.647 15.1778C107.936 15.1778 108.98 14.6066 108.98 14.6066L108.13 11.8875C108.13 11.8875 107.804 12.1447 107.478 12.1447C107.104 12.1447 106.925 11.8217 106.925 11.0918V9.16235H108.588V6.58386H106.925V3.43993H103.533V6.58386H102.229ZM123.536 1.46576L121.543 9.94916L119.405 1.46576H116.73L114.592 9.94916L112.599 1.46576H108.603L112.405 14.9267H116.386L118.067 8.36668L119.749 14.9267H123.73L127.532 1.46576H123.536H123.536ZM128.005 6.58091V14.9267H131.397V6.58091H128.005ZM129.686 0.822586C128.582 0.822586 127.685 1.71996 127.685 2.81188C127.685 3.90368 128.582 4.80105 129.674 4.80105C130.766 4.80105 131.663 3.90368 131.663 2.81188C131.663 1.71996 130.766 0.822586 129.674 0.822586H129.686ZM132.997 6.58091V14.9267H136.389V10.8346C136.389 10.7478 136.47 9.27019 137.972 9.27019C139.049 9.27019 139.536 9.77268 139.536 9.77268L140.957 6.90704C140.957 6.91886 140.191 6.33262 139.016 6.33262C137.382 6.33262 136.389 7.76851 136.389 7.76851V6.58103H132.997V6.58091ZM140.891 10.7388C140.891 13.1229 142.973 15.1778 145.519 15.1778C147.418 15.1778 148.983 14.6066 149.961 12.9613L147.532 11.7617C146.829 12.4229 146.584 12.5035 145.764 12.5035C145.357 12.5035 144.391 12.2942 144.391 11.2292H150.059C150.077 11.0319 150.092 10.8374 150.092 10.658C150.092 7.82509 148.151 6.32955 145.551 6.32955C142.991 6.32955 140.891 8.29486 140.891 10.7387L140.891 10.7388ZM144.487 9.47053C144.505 8.96496 144.849 8.57315 145.65 8.57315C146.272 8.57315 146.667 8.81838 146.781 9.47053H144.487H144.487Z" fill="#032900"/>
</svg>
