<svg width="48" height="48" viewBox="0 0 48 48" fill="none" xmlns="http://www.w3.org/2000/svg">
<rect x="0.5" y="0.5" width="47" height="47" rx="23.5" stroke="#B6BFB6"/>
<path d="M24 22.52C23.59 22.52 23.25 22.18 23.25 21.77V18.44C23.25 18.03 23.59 17.69 24 17.69C24.41 17.69 24.75 18.03 24.75 18.44V21.77C24.75 22.19 24.41 22.52 24 22.52Z" fill="#032900"/>
<path d="M24.0201 32.3501C21.4401 32.3501 18.8701 31.9401 16.4201 31.1201C15.5101 30.8201 14.8201 30.1701 14.5201 29.3501C14.2201 28.5301 14.3201 27.5901 14.8101 26.7701L16.0801 24.6501C16.3601 24.1801 16.6101 23.3001 16.6101 22.7501V20.6501C16.6101 16.5601 19.9301 13.2401 24.0201 13.2401C28.1101 13.2401 31.43 16.5601 31.43 20.6501V22.7501C31.43 23.2901 31.68 24.1801 31.96 24.6501L33.23 26.7701C33.7 27.5501 33.78 28.4801 33.47 29.3301C33.16 30.1801 32.4801 30.8301 31.6201 31.1201C29.1701 31.9501 26.6001 32.3501 24.0201 32.3501ZM24.0201 14.7501C20.7601 14.7501 18.1101 17.4001 18.1101 20.6601V22.7601C18.1101 23.5701 17.7901 24.7401 17.37 25.4301L16.1001 27.5601C15.8401 27.9901 15.7801 28.4501 15.9301 28.8501C16.0801 29.2501 16.4201 29.5501 16.9001 29.7101C21.5001 31.2401 26.56 31.2401 31.16 29.7101C31.59 29.5701 31.92 29.2501 32.07 28.8301C32.23 28.4101 32.18 27.9501 31.9501 27.5601L30.68 25.4401C30.26 24.7501 29.9401 23.5801 29.9401 22.7701V20.6701C29.9301 17.4001 27.2801 14.7501 24.0201 14.7501Z" fill="#032900"/>
<path d="M24 34.9C22.93 34.9 21.88 34.46 21.12 33.7C20.36 32.94 19.92 31.89 19.92 30.82H21.42C21.42 31.5 21.7 32.16 22.18 32.64C22.66 33.12 23.32 33.4 24 33.4C25.42 33.4 26.58 32.24 26.58 30.82H28.08C28.08 33.07 26.25 34.9 24 34.9Z" fill="#032900"/>
</svg>
