<svg width="70" height="72" viewBox="0 0 70 72" fill="none" xmlns="http://www.w3.org/2000/svg">
<path d="M67.7594 39.913C68.6072 42.1304 69.6507 44.6739 68.8029 47.2174C67.955 49.8261 65.6072 51.3261 63.5203 52.6304C62.3463 53.413 61.1072 54.1304 60.5203 54.913C59.9333 55.6957 59.542 57.1304 59.2159 58.5C58.629 60.8478 57.9116 63.5217 55.7594 65.1522C53.6072 66.7174 50.8681 66.587 48.3898 66.3913C46.955 66.3261 45.455 66.1957 44.4768 66.5217C43.5637 66.7826 42.455 67.7609 41.4116 68.6087C39.5203 70.1739 37.3681 72 34.5637 72C31.7594 72 29.6072 70.1739 27.7159 68.6087C26.6724 67.6957 25.5637 66.7826 24.6507 66.5217C23.6724 66.1957 22.1724 66.3261 20.7376 66.3913C18.3246 66.5217 15.5855 66.7174 13.3681 65.1522C11.1507 63.587 10.4985 60.913 9.91156 58.5C9.58547 57.1304 9.19417 55.6957 8.60721 54.8478C8.02025 54.0652 6.78112 53.2826 5.60721 52.5652C3.52025 51.2609 1.17243 49.7609 0.324601 47.1522C-0.458008 44.6087 0.520252 42.0652 1.36808 39.8478C1.88982 38.4783 2.47677 37.1087 2.47677 36C2.47677 34.8913 1.95503 33.5217 1.36808 32.1522C0.455035 29.9348 -0.523225 27.3913 0.324601 24.8478C1.17243 22.2391 3.52025 20.7391 5.60721 19.4348C6.78112 18.6522 8.02025 17.8696 8.60721 17.087C9.19417 16.3043 9.58547 14.8696 9.91156 13.5C10.4985 11.1522 11.2159 8.47826 13.3681 6.84783C15.5203 5.28261 18.2594 5.41305 20.7376 5.6087C22.1724 5.67392 23.6724 5.80434 24.6507 5.47826C25.5637 5.15217 26.6724 4.23913 27.7159 3.3913C29.6072 1.82608 31.7594 0 34.5637 0C37.3681 0 39.5203 1.82608 41.4116 3.3913C42.455 4.23913 43.5637 5.21739 44.4768 5.47826C45.455 5.80434 46.955 5.67392 48.3898 5.6087C50.8029 5.47826 53.542 5.28261 55.7594 6.84783C57.9768 8.41304 58.629 11.1522 59.2159 13.5C59.542 14.8696 59.9333 16.3043 60.5203 17.087C61.1072 17.8696 62.3463 18.6522 63.5203 19.3696C65.6072 20.6739 67.955 22.1739 68.8029 24.7826C69.5855 27.3261 68.6072 29.8043 67.7594 32.087C67.2377 33.4565 66.6507 34.8261 66.6507 35.9348C66.6507 37.0435 67.1724 38.5435 67.7594 39.913Z" fill="#FFE4E6"/>
<path d="M34.5635 59.4123C47.4581 59.4123 57.9113 48.9592 57.9113 36.0645C57.9113 23.1699 47.4581 12.7167 34.5635 12.7167C21.6688 12.7167 11.2157 23.1699 11.2157 36.0645C11.2157 48.9592 21.6688 59.4123 34.5635 59.4123Z" fill="#E11D48"/>
<path fill-rule="evenodd" clip-rule="evenodd" d="M29.1918 25.2788C31.331 21.5736 36.6791 21.5736 38.8183 25.2788L46.257 38.163C48.3963 41.8683 45.7222 46.4999 41.4438 46.4999H26.5664C22.2879 46.4999 19.6139 41.8683 21.7531 38.163L29.1918 25.2788ZM36.1929 26.7946C35.2205 25.1104 32.7896 25.1104 31.8172 26.7946L24.3785 39.6788C23.4061 41.363 24.6216 43.4683 26.5664 43.4683H41.4438C43.3885 43.4683 44.604 41.363 43.6316 39.6788L36.1929 26.7946Z" fill="white" stroke="#E11D48" stroke-width="0.75"/>
<path d="M34.0053 30.8366V34.8787" stroke="white" stroke-width="2.5" stroke-linecap="round" stroke-linejoin="round"/>
<path d="M34.0053 38.6685V39.1737" stroke="white" stroke-width="2.5" stroke-linecap="round" stroke-linejoin="round"/>
</svg>
