<svg width="42" height="42" viewBox="0 0 42 42" fill="none" xmlns="http://www.w3.org/2000/svg">
<g clip-path="url(#clip0_0_623)">
<path d="M21 42C32.598 42 42 32.598 42 21C42 9.40202 32.598 0 21 0C9.40202 0 0 9.40202 0 21C0 32.598 9.40202 42 21 42Z" fill="#635BFF"/>
<path fill-rule="evenodd" clip-rule="evenodd" d="M26.58 24C26.58 27.17 24.11 29 20.47 29C18.8317 28.9951 17.2118 28.6548 15.71 28V23.82C17.1685 24.6436 18.7975 25.1192 20.47 25.21C21.47 25.21 22.1 24.96 22.1 24.15C22.1 22.03 15.42 22.82 15.42 17.96C15.42 14.86 17.85 12.96 21.42 12.96C22.9116 12.9396 24.3928 13.2114 25.78 13.76V17.9C24.4308 17.1891 22.9347 16.8022 21.41 16.77C20.49 16.77 19.87 17.03 19.87 17.77C19.87 19.77 26.58 18.77 26.58 24.04V24Z" fill="white"/>
</g>
<defs>
<clipPath id="clip0_0_623">
<rect width="42" height="42" fill="white"/>
</clipPath>
</defs>
</svg>
